<svg width="32" height="32" viewBox="0 0 32 32" fill="none" xmlns="http://www.w3.org/2000/svg">
<path fill-rule="evenodd" clip-rule="evenodd" d="M9.14506 20.3758C9.34698 20.9731 9.02391 21.6201 8.42345 21.8209C6.47912 22.4713 5.44581 24.0947 4.89309 25.7457C4.67361 26.4012 4.54102 27.0323 4.46134 27.5541C4.98597 27.4749 5.62047 27.343 6.27954 27.1247C7.93933 26.5749 9.57153 25.5471 10.2254 23.6132C10.4273 23.016 11.0778 22.6946 11.6782 22.8954C12.2787 23.0963 12.6017 23.7433 12.3998 24.3405C11.4191 27.2412 8.99362 28.6308 7.00436 29.2897C5.99944 29.6225 5.05867 29.7868 4.37201 29.8688C4.02701 29.9099 3.74179 29.9308 3.53916 29.9414C3.43774 29.9467 3.35669 29.9495 3.29883 29.9509C3.26989 29.9516 3.24672 29.952 3.22968 29.9522L3.20874 29.9524L3.20178 29.9524L3.1992 29.9524L3.19814 29.9524C3.19767 29.9524 3.19722 29.9524 3.19722 28.8115C2.05017 28.8115 2.05017 28.8111 2.05017 28.8106L2.05017 28.8095L2.05018 28.807L2.05021 28.8001L2.0504 28.7792C2.05061 28.7623 2.05099 28.7392 2.05171 28.7104C2.05314 28.6529 2.05591 28.5723 2.06125 28.4714C2.07191 28.2698 2.0929 27.9862 2.13428 27.643C2.21665 26.96 2.38186 26.0243 2.7165 25.0247C3.37894 23.0461 4.77594 20.6335 7.69223 19.6581C8.29268 19.4572 8.94314 19.7786 9.14506 20.3758ZM3.19722 28.8115H2.05017C2.05017 29.4416 2.56372 29.9524 3.19722 29.9524V28.8115Z" fill="#8381D9"/>
<path fill-rule="evenodd" clip-rule="evenodd" d="M28.1873 3.95483C26.8559 3.76384 23.5787 3.69189 20.2247 7.02796L11.3002 15.9048L16.1732 20.7517L25.0977 11.8749C28.4517 8.53884 28.3794 5.27912 28.1873 3.95483ZM28.52 1.6971C26.6889 1.43342 22.6073 1.43113 18.6025 5.41446L8.86697 15.098C8.65186 15.312 8.53101 15.6022 8.53101 15.9048C8.53101 16.2074 8.65186 16.4976 8.86697 16.7115L15.3621 23.172C15.8101 23.6175 16.5364 23.6175 16.9843 23.172L26.7199 13.4884C30.7246 9.5051 30.7223 5.44526 30.4572 3.62398C30.3901 3.13654 30.1645 2.68425 29.8146 2.33626C29.4648 1.98828 29.01 1.76383 28.52 1.6971Z" fill="#8381D9"/>
<path fill-rule="evenodd" clip-rule="evenodd" d="M24.2885 13.1521C24.922 13.1521 25.4356 13.6629 25.4356 14.293V23.506L25.4355 23.5222C25.4269 24.1215 25.1816 24.6932 24.7528 25.114L20.1238 29.7325C19.83 30.0245 19.4619 30.2316 19.059 30.3318C18.6561 30.432 18.2333 30.4215 17.8359 30.3015C17.4385 30.1814 17.0813 29.9563 16.8025 29.6502C16.5238 29.3442 16.3338 28.9689 16.2527 28.564C16.2526 28.5637 16.2528 28.5643 16.2527 28.564L15.0485 22.5893C14.924 21.9715 15.3265 21.3702 15.9477 21.2464C16.5688 21.1225 17.1733 21.5229 17.2978 22.1408L18.5026 28.1181L23.1415 23.4897V14.293C23.1415 13.6629 23.655 13.1521 24.2885 13.1521Z" fill="#8381D9"/>
<path fill-rule="evenodd" clip-rule="evenodd" d="M8.51467 6.69189L8.531 6.69177H17.7934C18.4269 6.69177 18.9405 7.20258 18.9405 7.83269C18.9405 8.46281 18.4269 8.97361 17.7934 8.97361H8.54723L8.53796 8.98302L8.5379 8.98297L3.89407 13.5877L3.89585 13.5881L9.90352 14.786C10.5247 14.9099 10.9272 15.5111 10.8027 16.129C10.6782 16.7468 10.0737 17.1472 9.45258 17.0234L3.44669 15.8258C3.44635 15.8257 3.44601 15.8256 3.44566 15.8255C3.03869 15.7449 2.66134 15.5559 2.3538 15.2788C2.04599 15.0014 1.81967 14.6461 1.69898 14.2508C1.57828 13.8555 1.56774 13.4351 1.66848 13.0343C1.76921 12.6335 1.97745 12.2674 2.27097 11.9751L2.27269 11.9734L2.27269 11.9734L6.9143 7.37087C7.33735 6.94439 7.91217 6.70042 8.51467 6.69189Z" fill="#8381D9"/>
</svg>
